<svg width="180" height="48" viewBox="0 0 180 48" fill="none" xmlns="http://www.w3.org/2000/svg">
  <!-- Chef Hat Icon -->
  <g id="chef-hat">
    <circle cx="24" cy="20" r="16" fill="url(#gradient-primary)" stroke="white" stroke-width="2"/>
    <path d="M16 18c0-4.418 3.582-8 8-8s8 3.582 8 8" fill="white"/>
    <path d="M14 26h20v4c0 2.209-1.791 4-4 4H18c-2.209 0-4-1.791-4-4v-4z" fill="white"/>
    <circle cx="20" cy="16" r="2" fill="url(#gradient-primary)"/>
    <circle cx="28" cy="16" r="2" fill="url(#gradient-primary)"/>
    <path d="M24 20c-1.105 0-2-.895-2-2s.895-2 2-2 2 .895 2 2-.895 2-2 2z" fill="url(#gradient-primary)"/>
  </g>
  
  <!-- Brand Text -->
  <g id="brand-text">
    <text x="56" y="22" font-family="Geist, system-ui, sans-serif" font-size="18" font-weight="700" fill="#1D4ED8">
      Malt
    </text>
    <text x="95" y="22" font-family="Geist, system-ui, sans-serif" font-size="18" font-weight="400" fill="#374151">
      Cook
    </text>
    <text x="56" y="36" font-family="Geist, system-ui, sans-serif" font-size="10" font-weight="400" fill="#6B7280" letter-spacing="0.05em">
      CHEFS DE TALENT
    </text>
  </g>
  
  <!-- Gradient Definitions -->
  <defs>
    <linearGradient id="gradient-primary" x1="0%" y1="0%" x2="100%" y2="100%">
      <stop offset="0%" style="stop-color:#2563EB"/>
      <stop offset="100%" style="stop-color:#1D4ED8"/>
    </linearGradient>
  </defs>
</svg> 